/* XPM */
static char *result[] = {
/* columns rows colors chars-per-pixel */
"120 120 83 1 ",
"  c #434446",
". c #414448",
"X c #4B4649",
"o c #47494D",
"O c #4C4C4E",
"+ c #524E4F",
"@ c #424A50",
"# c #4D4E51",
"$ c #514F51",
"% c #4E5154",
"& c #4F5458",
"* c #535355",
"= c #585656",
"- c #565857",
"; c #5A5957",
": c #555659",
"> c #595759",
", c #56595B",
"< c #5B5B5D",
"1 c #615E5E",
"2 c #6D5F5B",
"3 c #5F605F",
"4 c #62615F",
"5 c #575D62",
"6 c #5D5E61",
"7 c #605F61",
"8 c #5E6163",
"9 c #5F6569",
"0 c #636365",
"q c #696666",
"w c #666867",
"e c #696867",
"r c #656669",
"t c #696769",
"y c #66696B",
"u c #6A6B6D",
"i c #726A66",
"p c #716E6D",
"a c #6F706F",
"s c #72716F",
"d c #78736F",
"f c #676A70",
"g c #6C6E71",
"h c #706F71",
"j c #6E7173",
"k c #6E7479",
"l c #727374",
"z c #797675",
"x c #747877",
"c c #7A7977",
"v c #747679",
"b c #787779",
"n c #76797B",
"m c #7A7B7C",
"M c #817E7C",
"N c #897F7C",
"B c #85827F",
"V c #8A837E",
"C c #777C81",
"Z c #7C7E81",
"A c #817F81",
"S c #7E8183",
"D c #7F8588",
"F c #828384",
"G c #898683",
"H c #868887",
"J c #8B8987",
"K c #838689",
"L c #898788",
"P c #86898B",
"I c #8A8B8C",
"U c #928E8C",
"Y c #8F918F",
"T c #878F94",
"R c #8C8E91",
"E c #908D90",
"W c #8D9193",
"Q c #929395",
"! c #93969A",
"~ c #959A9C",
"^ c #989B9E",
"/ c #9B9FA5",
"( c #9FA3A2",
/* pixels */
"mw0l0606::ugglr%::0e0127:8r63Hmjl4wnSurar,gbr.Fr6<-0lFg6vnrPkrfr6fy0uu0r66>6577Zt6y767vCjj3wvjy0><0v8Furn8w0lr<xmRj:wj<,",
"6rgg>66uw6vFfvre:6rtp1yy6:66lumw0nevvu8r*>uFyw%,g>wulmmlwj6F,*rvvtvfuZyrZlgrg77gCgrr::t68:<,,wIRwrgvjrgy6y>6e6,wfvk6<8yy",
"vuy6ln89yy5&0>t8><>8tttr8ruju9b0uuuceurrugrlj<wa00*rulslg8nPgrggfmv7ht7g6070gry*6tyvt7v6o*0r66gnr0ugw9vgn*y6>6yr0yvular*",
"gygyujwjrw>,r0llvrwmqgu6yw8njyqqxelBp8<<et708,<lu8>0uuueryQZrfygghl7ty6u06>uhyy>0urnF0u>:<w*66jgl000r,rvPnr6898,ruu8rj8<",
"uyZg6<0j0wr6ew68w8ubejhr8,,unllluvvl>>t0eult<vl0iwweyjur6ACZfgCbbttglg0fe7>650Atq>qmmg660030y6hrbl7uu<<u>0%8ruw6le0>f0>6",
"8gl0ur9u<<,8>w>8*:ewjbml0ygeuvzulegw<6lg0uru1uu6lbuauuuggmCZt7hgFgtrlghr066y6&>r<<ruutrru7<0j*8yguth1<rw,08ryj0gbr>wlw8,",
"ynlfvl8rr,660r<gw:<><ehuet0uu>rFlauyeglz6hyj00,glcMelnwrhmC6776glhnegggtyyym6@+007uvblurv000k:yylZy<q<<6e4g8g8rmAm7rluu>",
"yvlvljwfSrr668,ynr88=<ulu00ueueF0gljuullgnmuww*mAlw0wgyrvlZfr6tbthZgttr5rr8hj6<egy0jbljururrvrrrugu6t0>wq>yyu8uehv76ttlr",
"euvCuuggvy068g80uu8uu0aj,#<0ezu0rbbxucs40ulq6Zygl00trr98fyvgy,rr>rtrtut6g8<rrl<rrrrrngre00nrjy8rjmlu0410r<3rrrw686*<qunj",
"urmnu<ua00rwrlr2elywwuwy008rlu0sygvlece#*<00y/!gr=0uulZnvrgvu8866rftvvyrjwrjlu8r6>rrjg<0=0ujgl6gvgwres4<0e3<e88rr8>juune",
":6y8uramvrrrjur1lur<qs8r0ew<*F0u00mnjlu*<ywygK(lu1r0umZSk68Ffr,6trfhgyg0x6lgm00<,>yt8y60r00juuruu10r<r0>0r<yF000u6:wcueg",
",w86ywju06t>xwu0wuCjmv8r<0l<uSlurru009r8866gvllur608nFlmf66gyr6rf7tht0rgy8nmrr=8>rgy6w6w8lbr88WR6<6,8u6=0>rau0><8rrul<0>",
"gCQeuwew60elyeerjrurgggu0<8ul12<8r0<08<rg6:lVr4pelg6ggvSL60ergklt7rf67ry9rgv7l008w6>6r<r<u>8*%grur:6ug00>:>rwrrgweyuu:>o",
"y6Uc*0l0>lgvr0:rmuw6,>8g00wmm04uuS8uF8euyyr6ue0sZggmWSmjmnlKy8g67pgtfgng86g67<00ulju%8r<wwO<r,fr6>:6rfh<06uZj6>rr<wlu6lu",
"gr<00cbu<0006bll4se0*,8yvjuuu*8yr8<88,0lg:wy6luFKlmheuCyflqFf*,rutug757r6Anvlugurr8<>ueu8e%8r3=<8wx<*,r=6y8grryy0,>rlewl",
"Pg7ujjnw>*=8x08FeulgryryCSyCw0<l,rumw9sa8rnl004uMFFurmluwlt065g>uh76677g7!tuurwrrbu8><<0r*000<,:,0r9*g>#ygkjCyhg0<>uZp<u",
"u0g>6>r0e0elu<e0lmAz00ulmnyl<=83<gSn6:6vr<j**,lj0i1tnn<<:AlruFer0:r8<rumjwf<u=enSw89a43%%<=wrl<u<8o*<<8,0g0yrreuuwr8%65t",
"Ftwru0ejulnvussslvu6<r0rjlynrrr8<njur06e04obn0qvpz07lQj**rlYvbtmg>ujyju16kutSm6<rurr8e0<00>7ty>#>8::0,,l6,vru;*<0rwgyyr6",
"uj>gl8u0<00,u04lMue0308300rnjj8%8w660wr0l=OtunuPgu006rw<%9uxmmu0jfy7000>0<lt<r000gg0=00r->06vv6646,:>8rj86w6=O,0ujugx8yr",
"ryyrgljwe06<0l0><>0uw8<3eu0u96r8r666rrjuu>;wljumlet00e808lurl0t7g650r>r8<0<0*r0<0ruwwrr>30urltr6088*#88jwg906ru<<wgZCu68",
"Zrm=egenn006uw0;r88fg86<>uulw8&ar.*wjrlvy<0aQrlngfpe0u1>uut0666fr0>6fyre7grlwF0llr1;0q00wuw8jr67er<%%99=lw0000e<8wunur0l",
"S>g0lnbZjr60,<a<8y0gjr0<rw33r<:bj%8ujw0ur,wy!y0r0gluqp<wVzu1r00utg06rCSf7u><6uullr000q10rn8ynrr00<868gnOk800>00888<w89uy",
"l88rrwulqe00:r0*8rrlyr00y0<<,=rjn80000je83w9jw0grerlMl0sMdrl0lr,6r766gny0<:<*007<<0q<>;0<lygnewurgulwjl*wr0r*<wg,,-8rewy",
"wrrrjr8w6006<r<=<8rjg040rw08<<,jl8ue0uns<,0rj<<lur<lAlaldeelr>6660006<:r<,,88j<r00w000>u01gmuw00>rrj8u<<,>w0>0yw060<wj38",
"<88rujr8>>y8<3<ew4uwmwjj6>,u00,lr8uuljg8<8wlS>9jr8ellluezqqauOr30ruyu<*6:*rur6080na88,<uu6ggu08$O=9jal:<83>-:rrr080w<3s+",
"Fr,r$ry0::6ueu<iq<w80lgjr*>uu<3Sle6uvggu88yv0u8xw>0ezlu0w4wa0<j0jyuw8,>*=66n8,0ryy3=<<uuv6r:8><:>wjj0r8rrk8%>rwr<r0<<*e0",
"jgyw<vjwwl<elu3ue0lu<relrwrww%>wj008ryrlr3w0<-<,6:>00w0tw*>0re<4l>08:rm0,r*y,:%wr,,*<fj6gR76l0rwuur8a0<68&:*qg0000e86;0<",
"0lwj0<0e6<0jlw<0slxsf66tjl<w,O;*w9<>w8*03wur9<%r0uwgr3zh74rO<<lsr>tt<6rrr6>j6:*<:**-868%lrrlr60jjnbur>=>r%<r000r8<gw>1el",
"ljyfwapuu>0tre,asgwawyuvul40rw,wj<,088,O<*%<8:,<8njblhZl0lw0lwRr>001=*O>rg=>=#eq>>8w08r#0>Ct>6rrw0>grgu>r98yr06re0<07-fr",
"j><8wru0<<q48jayj,,r6,008awmwb*<Ku8,,603*-3,8uwungKKht0mwu0MmC00tl007101:*>ww=<0600r3%<<yX6gy**r6060rrrC$u<,8:<,000u0uww",
"erl,rwggwunju3jTnl0bjray800j0w,m9ker68<<3*u8%<wmberaFFe;1smu00ue>#*0hll0<<*t<;>h:>r6*r<m6<vy6,0r<>rr0ur7n1r,6<O8eg06>0qu",
"Aw08jSwurupu8ujr68w0rgj8wjml>0*8830>>jllu3%*ru;1uJMpcSkwOurne*<670:>4uleu<*7w0;<rwg**,,uyry00,06>6,,6*vrw3*ejr8wuetulhmh",
"r707y000r4<88j086h6gufryu0e<:rgj8ww8-808r0euZ00gblvzrwgglr,0<q17ru0<7g<7v=>quw;<>0066,9%>:yr686hr*jn9,887u7mj66ww<0lslZu",
"l00ulue00w4r>u0um<uuyg9weq<>9-w8-*<w90rw6re0ujeiptutwururmv,wuhutruueq0uuu4=8w007yg0<:8ry6j8v6tu668>>*60uf<lrrg<0u0ul060",
"B<0hgl07wgr;rrrjPlvgfgrmv<*>0:>3*3wu08jurngwempqujl798w>>0r>0ru0rj60lp7<uq<7r0ruu0ur688r6>grvuuhSber0,>vpnfth00>00ele>0<",
"p0urfr0<eme0<<8Zn6tmvgrlg7:eu<0r%ww<eajw8wy>eu00rtnfrr9,ery00>0=,r08l07*6770-*rrAt0w8k><*#6uvrvrvlrru0=vv>00uulll08rl=><",
"g>u8rut0rluuu>>w6fgup004076tw6j<<br0llu8,yxw0>0r66rjgn9=0rrthghr::<600l<6>8r<38uZh<70v>>w6r0gryrerrrrr<7P7ggmbBbcwuwv0uu",
"F:00uur00l00r=raumFuupzq0616e08*8bw<0gw*aRxva1l8>>6e0r,=0r=>hvvb5-*<::00w>rw,<>r<<*$6y7nmr86j>0ur0guug0>t6Puluglj0uuuu07",
"l<<007<uplgr700mutvgell0*<<:04->0w00ur0=gnr<weur*:000<,:0r607rru><,<66>606rr,<,;<0>$6rghu:6-8rrrt7rgg0brrrZrjrulue4q0t<0",
"r070l0:eluru06lu>0hr08>>=>00w<<4wur0a<8388u660<8>ru0060:8j0060>0>w<<0rpm0><><3*<hhtryrr>,-n<#ryygg7700u<y7t08>6lKa0>66*u",
"g0vbbr*>8rwrrrgrgng86<%>elwuy*-O,w80w<><*3au<,0w-43<3r0,wJ66u0>y67>:r71caO8=<>;=7uqtru<*<rf<*<ejlkr>85w0Kn0gu6ulu00qu06l",
"eggbu0<,00y<30umluuu:8wj<8r8mw<.#l80uq48ec88<Sn83w**;e0>6eumbe8r*<6>0u4uu<l<ew=<qq707tm7<gg0je0rr63<,:r6e<*eSrw0>1ru66>r",
"0u00ln8rre06<ung>llFFIju8<8>Fr,8<w<0e080<3=<:08r0383804zg,wlbr6**th06g00;4>bmw>wquuq=7M1r:06ju,<=*00%::*<jelll<,>emnjr6u",
"00<tlxsu*0eK0luP0lrwrggw0r0arKarlllw0ere0a0988Fuwmw03400uKyl06>:uu0fg00u4>-<lj>1eu0<7FM;gr66l<*<;<8><llu0S8Wlulml<*803l<",
"3e>8r8<8vSmnm6rg*wul:ug0qut00be<000:=0raw8c88uewO0sur***,>u;=<Alll0ppub444 Oaqrww0*<e<*1:0ura0r>=7rg80l00r>,7gur=<l08r4;",
"#*yCIuw<<7vu>F,w0m<0y6umluupl<04s0letuw*3,ru3uaO0ee0ru8O>7zu,>=10lurw4*;=;30B<w0>><0u0*O680Ku0g0uug08vrm0t9>67u6<<<gl~<:",
"m0r<*>0wphKgr0fv=3u400ug66ymrylu0a0rupu<xewj<e-u<=s0<xw88Pmc07=4>r<<=>qp=;*0<1ww00q0<w*ul<lu6,O-777t*>PPuue<>7eybu07jy8F",
"l:uwej0u00phfe:wuu0p0ull0mZn6wclup0<00u0<08>,uwa4=04rl8e80luu<e<<4<>*<<<4=+0*s1uKl0uucq=3rZkr:=<1qu6O<0r$F60ltp0lzuv0=9j",
"r>r<866r8r00u4welrlueruy6ll<*0lllug3ruw60<*zrjl8:rt><<<eaag,86lr>>>>801=>4=s*peuju>8ej<4=0y808>6*0000hu6*uyCj0vZv,0l0*jk",
"ymru<>yy<*8w00rnvyj><0ml8uwr01urwSTuu0u6%3<r0ul8<wr:>>;0wrre8u0wqt00w0<q;l0a<lc0w38e<>rw*<Zvljua>>80teuuue>6e6yvu:0mhtgu",
"8ewu>>guw888yyuZC<ujlSFgyjr0l>066ujrw<8=033-<wur#**%<4==<8<ag08bq1r7<<<;ea>00b10u00l0rr0>:ur*<bl>>:0rgut01<><:>rf0lvv>te",
"ru=r0tg0<rryjyjyww0uvvlun86=06s>,ry<4<00u-<8-wyu<-rr3u4<*<0ur:lvuhvhtuw0ee<<e<**0<<*>01l00<<*6llut:0thpg066m*666y0lPvu0m",
"0D*,wuuutmvmw8nyg8r8uggeny6>>rut8w0<3w0w0;3uw,u6ejuu4u4<0qteu0gucFZMzp0t0<<<u0>,u3<<=,3lq1<7u<01ug7ltulb7l1M<>8w01vAblrw",
"<g>=ygfu0cMluwrfr8uur700gvlt<67u0urw0uwww08<e00>wbuew0<0<l7rler0tuhlzs0u1>6*Kl10w;-<%*=u7*7pu>000t<et7y07p4q0<uuu<hgu>u4",
"u<>0yrfrulluwl,yyyrlu:tg0eSc07uu<0rwulllww8,r0u>wuw8-<30<40rugg7776tquhbe:e0IFe00<*=>,8b0,0Mtu100<7<0**6u60lrr8elrryw-8=",
"u*>rgyhe1lglyurw6<uvl6w0r0up7bFp><8wuu00000<ujy8r,ur<>4u00u0yye<:00107uzl>0lmpluu3<<>=:e#>uu0e106el077$00*r>r6glghgl8r>0",
"r5t0<gl714jylpt<<O8r06hg00be0bHu0,,s0ll0ur00l8r3<:gyjwwjp1eHjul0<t0030010>Xu0tmh0wu<ub7>>l1>e>6u0<0<>7u<>u>,60mvurju8>rx",
"7#66elPtr8%6Sl>#:>r,0006exlw*raFluwllsnerr0wl>wuSrrye0wxm<<ADee0><et0cq0tZ>hZhlZ00q<hm6>70p7u6600<<O*7b0zlw0gykgeuu6e7lu",
":f70vmv0*>8wt<e*=8rrsw0**u0wew>89uwalmnw8ew=0w<wj8-8ugajw<z-0llw0uzqmll0lvtgEcbu1r0>6r>8w:m>lf0>:=6u0*00eq06ltKFu406jv<>",
"ytmrhlum<>>uK7m688>uurr**wsq,>0u0uleuuu0>h:00>>,8<,jSuwu>0s0<>ue10upq<uIFp0qh00ye<qcIj,%:>glyr0=*runjub6PFuuvPrullu0g*e6",
"yKq><l606<vuBgb8uuur<0ururn>O4Iur>600quu08z0l0l<rxunGarylsurPqulvS0ul0rlcz>>$4tu6tqeje<0<xr06<rujung6>0cPy,:0uhtvgl;>*6t",
"fbp0bhnu0%>>66*O6:Z0gr6rjnueu$1<66eelpbq-*,e8pg>ue;0mu33<l0lF0phvvucFhrupAI=1<;>=1718rm00ueu*=*<4>elpc7thggtmrtuhw<1u7hv",
"l0tllfghr:e0<0<u#<0rlnnSvgmgv0lq>01107l7<ruj8%bSbu<0ruu0<0el>>7><>qqulupeblb=uqptle*0bh70b00>q=77>ur7u:uh6yfg0t7ue**bzAC",
"Luzuwbgue<0sua<u>e1008yr<=>g7<l>7q<<4te>>q<308<uujw08wrruu=l6O<u00>;q0ue0unFlttu01000u6tr70tu<*uFe8=ulfmn7gl0rlfj0<*0grC",
"ltl0>8r60r67ng$6606u$6065r<r86u0<3:<38eull<40rz0gr888rr<rr<61h>p0rr>>00thhRbP0qppuhpuAhryfyt6g6<0qlgbuPl7rgfr670uguuB<%b",
"vr66rwrr0ggtvg#v6,7g,0rnj,>0e<1ugu<<<wuswxwe1JI>j><rr80<*u6lpm7t0rtu0>7h0egum0q0ztu1;q7>rS77791tlulvMtf6eemgugu7rl0uu880",
"lf6rr88rrujj006vrrlnvr6yjwruu>e6lrw00ul00xeu6mu>u86uu6607ptbqh60ugtq71u00re0ttulApq1ui1qlqqtjr70qr0yg0w6rlfnyme60yu0gryr",
"6tgtr6,yglgj6f>r0hgvvfgg<u9uw<l*ew0eljuwwps0zlqqrw>8gnl00urvue<ulvg<<0pturr<71evht>1le0lu0pcm7tu0gfr08rywvFClh,>0eng6,,u",
"0umgrr6ruruu8u>0tt7glyggmjyu>jl,l0<<3r8eeuu<0ull6008rCv8077ft7gthrttghvhr>=0tthlct<1q0fb77puu0gvgll00jrfjublFu>8ywurgyy5",
"u0uhujrylfruDur068fgytfyn0rry0vjlre88<rw01<<*<uae8<88yrr7*7r=<ttu7guutRh0*$whlmttt7t00we*guvrgyuuur6yr7mg6ppbP00gjyuggf6",
"0h7htewugwgun6f>l*flZhytr67ub*ulrenj<8rye>w3q+<>wlwwr>,>>*pu>tr7t67rhtmmg07rRmpt0g1<lz<u$07httyrfg6r>08kf6lp0vuugvgr0Cyv",
"gnfgeufyerhgK8u=76lhg5rf86ttl6lbxWj0<0<<u>:<0*;<uIau<%6*$777zumr7>&:t66hubhlvutt0007q0$u6tcMv*56yy%=<l6yv0Lq0u0gvvkgjfyv",
"78uZ00r86r0>S0>lyvrl9<,0llnykuyu8l00v0<rr>*qj0>4elm07vy6>yu>uq607g6700rg08*g0r7t1uuw0*b7rrbvu667ulg66nyg0ug3*j00,wgvvZh6",
"tr<0600,,r008<<m6,,rxj8ujg,6yrg06r067:>04+eulwlwjrauyur66#u>gmrv776r%*66<rr:66000e41rtug,6r0vggggg7>6y*,uuuuu=>lg6=0Zuy*",
"tlll60rlg:#q8,pcj8rjrru8<>,,<9jSgFCfr8<83a0<Sjcbgx8<6<tl0*7uv07p7hrg0uS8,S><6gn60h0406>v7t6tvrl7*:6rvh7rbgrljKrylSu,gy> ",
"0<<ttgea0<rZl6<7r63,8rrmvuyy*j#6ru::8jwr<q0uwwwu8yu%6zb7vyvmg>1t7Cll0gwjunr<r,r6lvrr70tmCuh0u6$66ykn66l>7et%<gwr>gr>gv8e",
"08quuublun00mL<ug*>er:>00t6y60yyyv8,<sla1e0q38*ajjw6r89,*:6gf6ruhlt7uy,<6yu*:68wu>:vbjnt><*0rrrlr7hr<ljrh:u6u67r00r8Zg0<",
"plpppurur86lvr0r*<0008uu0<uugv:>6Zv880lw8<quBls,>ugur>#6fru8l0vhr7g7g78:%:;r,yhur00uf76ruury8><grtZl<gjr8u*:rr6*7ggyrr*h",
"resNcrhu1r0frh7l06g>rrry<<06yufruww>0wwa8uculljuw0llxruynvr<l6ff7rjf6086,9<llSylmvtgvvlru>gk>,6r65rr0gr:6Prrggyflgnfvn<g",
"l0tuqttule,utrrFtyCjvrwu>88558trj6r60wru0jxr>wrbmr<ejurglunjl6grj6ff8,60rujjZZxCkvvgyhuru:Sgrv86666rrryrlrr8gtfjgjZvvg8v",
"rru0680lmvtu0,rurlCbgvhtryl6,,r68rrullw9ynjw0pmlg7tgeugZlf9rthDvgCZyrr6rrlzbvgtfggfy7lvrf6g9666yyyr7f6r6n<g0rggvgruZ066g",
"wZurewuumZl008080vthgnf09rmg,6&6rgrjluryjj8j0zburryffkgQZZgrg5Ctvkvvvtr7>epFmyvrgyyy7fCgfy7g6*rvfrfrf6r6l<h688rjgy7hhwr0",
"gPrlj0jrlne*>grwyFhfvng86tu>*:*6urflpr6fyr8r<pbuguj8umZFuzhyr&7rCrrfftfr0rfrhtmtryr6567vgg<frr7r77yrjr6076vrfrrggfrrllrw",
"gg>juunuyuu66rrjjgu0ur8w9ly,y,:6vy06eljgurvr0<lr<6y60vCylvtfr67nlfggt7jllvu>0rmfyfyy766grg6ruf66yryynr6ug766yj0800gfuC8,",
"689r8rlgfnAtv0l8ygnrr89rgg66y6urygy66ygyrglvZ&rr0u55<wg0eZgrr6rnggkkt2hhjlq<::grr5rgvf7rggr0yrr8utluj8yyr756rg6,0gygulu:",
"&yy9u0lgtggulhFf:8y6rrfygyygg8r5vgyr>666>668mrjlgggvulZkjCv6jrrfgl56qtuu0rt6#55t667676ufyry8666ygurj0yrr>C5r7gv6gZgvv7>9",
"jj8yguZgtFPvgull0rfrryyjvg76uu>>0r06rryy,>g6jmvyy8rlllvPmlg$gtyvhv7frrlv>6fv6r$6rrffr666>ymrr>0kjgrj0y<8lm,*fAgufyrfrr0r",
"nm>r0glvuhbguqulryugxyryfru7g7yrul<796686:uh<hSg6>0r8hfvlu0rgrrvgffr6rggyfrvv6>t66ht5,5rfuF8jy6wu0rr0r0wgg7>tv6gmr6,660n",
"knlr6ulfu1uulwgSrwqIPfyrSjuuu0<<<y<8&#56gr6,>tZ6886:696gc>u6:6yrghvt5677vvfu<y5r5jZ7>ygg06guclgy00pZZuw96wu07ryvZZlvg66f",
"8uj6r8MKhtw0rg6Shu8lFwvjnCvp0uu0rn,-668,rf%0rCg6ZE,rggh9ynF*6fg67g75*lvfn6frug66rFDfyyrgfl0t0tlggSALmtw0>86lf6fvFAvy6y6g",
"n5,rlvlrlmglZ6rkZj,66rrgCjggy<luup0rg,rfyg$u06kFy*utgfrj86l>jy9,br767rtj9Z0t>6gy7gfgCylnmfg07mmtlr0gbgg<:*tmmrfCzt8yel8,",
"Rjgm6uhq8rvfmuuv0j9gu8yjr0rrK6ul0u088yrZCy6,wfKZ567yr,6glfl@>gjyCbhlrtffrh7gy8rg6ryr55ry0m0y0r0flgllarjlrurSnf66ugeIFe8<",
"vg6gZj060yw0bu*60gre,6fgw6rrj59,9l80y86gCr176&5gk9::lvl6,9%#6rfgfC6gy6rg6rlhr7ClttjPCrfvyyj8rr60lyyyrgmjnu6fuplglljlja<r",
"gynruluwr886uttc8rgyrggulj9<yj%uu8<ry5:jgu,>fy5lUggygjr80mr:6r7769rr6ykntfbtrgbCl55jlf6fj6may6w6jlyr0wuqujr<076<lvuubleu",
"ullw0<6rlug86,Cqrj8g86relZ8r-y@,%6uy860ggufgfyyy,8Fltu06,>l6r>57gr767yr:tg6jr76kj:rguhgyyjFl09ulvgeleuqubx>r>8jwjlluvwnr",
"uhuge00gurgyvyZ6emuu0,076t9w%&<r:ury>0uvy6hgv6Dk9yjr0008y%ygg$5gff56fkt6hffl7vf65rgvvvkjfPuu3yvuywlmp0tgyw9yru00uvjrvej8",
"nbjr80euulvgjgf0uu0ub89g8038:,r,<ygj6glj86mlZwSKj9r9rr8>e8ggg66ggr67gkffrr6*57rtfgguggyfvZvujCv67hvlq>uu>9ewwg66rll0luyw",
"ZjljrqMiulZlrrvgjrulg:8r69wur8j<8-8rrlv0ugPg0j8Qj998ur%8ee6y6l5y7rrkgf77r7r*5gr6uhurffyl6nlfZmvuugfw<:0rj-80uugjuru7vjjl",
"nrgygrehljxCjrr0r0rr06rr8wlg6ej8,,&%<ug0uhZb0urDjnjrjg%,r0666fgnfCgg76frrtf5fgf6yr0<trrh<luumACmrrge0*l0j,<uyvFZu00fZrjg",
"66y67rghjgySyv9y66g0086uj89j9>er58680<:<vhuu0rrCjfjknj68eg067hfSgCZCjhgrrgy:6*5rfrrrh67lth0urvmFy0uw0<Fvggnr0jCZvl7tC0rf",
"8rgvnvbmbKmv0m0bt*r6yr9jj9rr9=cwyryjr:<0jmrlg>wlw9ugj0>80v:0eZ6f7Ctfftfr77lgt$6fvutgl>ygv<rggvCZgru08<gglfv666kmlZe6jr8g",
",KZSCmhh00um>f>u0w0rrguyujll<rFr8ryjf61<::0vS604eur%w31lj6<w,Z*>fZgfgZZfghlj6>6tfr660y9ymrlmlfh66r8yu<lrr6rA,yghumngum0g",
"6Zrllgvltgr>>n,l0Kvvlgla0wlnjyrF6rjxkyr>:689jgn>l8rrr-,pfzU<*yfuZvgfvggrhtv6#67fftmZu6rlv>rnPZlgujreSweFv6rhnRCl7jlm8f0>",
":0eymyvglufnggbh6lgml6>guulw89-u#9SSgvmP6eu6efywf-wxy,rlltc0yy60lgjr656Cf6kAy5gh::vCrr:0Fr:llunvyjlllr0l6ZuuulDvmlru00ug",
"lr70e0u0:wgn*ylumlvv0ggry0g*%#8njZur8yy96<,00n,grumvluggh*gt:f67gryyrwuf7fgZltv56kvvfgym<,yulxugullgvvtr$lClu6vDk8glwel0",
"recuruclun0jwerg<bywryuPngIvur:x00y,,89<>uwmu*gjj6ugZ0mmuyr6r7fgfvjrrggyfbgrl776yy>,tgyl>>ne8umuuu<0uhvQulZ769k96egle0CS",
"hjPlur6rlnuyut0hblrlr8<eluSvvj6yurw%*wxf,y,::hmgjrwxg0uyyggr65rgkvggjuu67C6gtv57hg770ruyng^0yrlull>rZZu6ghAZvlvuu8fugrI(",
"0rS<jeg9Cg<l0;u6,0jnj<uwgebgjD5g<*:r8yw8wu,5<0mIF,:9r8u8grmv6r,7lKDj:o,&6gfQh:65>rfrjg786j!m96u6jl0trbK6rhZ7fnrgu8ggg60k",
"gZC6y6uuyy,,r0j0*uuPv0rrmlSKnnl,0r,0<8w8868gy5KGl0688wwau0uKg95vvfvgr669fSf!*tCg&rfryyfgrgu00yv0u0yu>yl06ggghlbuwgmu7rg6",
"n6Cr:6ryyyr6>uru,gllu88rjunlnrYy::0w>9<9y88uy-0lbjy6%*wjy0tvgjtAvgvy07>gyvfjvCvfy6770vvgwr>00ffuewg80lvryrnnblbvur<yFZyy",
"r6f08gjr6gyg8l6ruuaegr6yjyvnlrIKnye0>8rrfu08&>0ljyr0w<0<l0pWlAhurttgg0hwgr,vKvKglgt60Anyrp10yyy7>0g60ulpfhKv0rvuly:yZlry",
"5hgvvgutrrlvrIr0ll<0uuuywunSSycuSjeq<8rrwy09%8lurrulbu<,Gsulvvh07gkvZbgyyyyvgvtynmfrgIn6ghr<g6r0ruyr0ggu<rZnrjvjglr00yrr",
"rhyjCurujrl0<S8gyyur->8eg068rrxlba00<0uuur<r,:Sjw6eyrw8rlerlunllgjZACvfgtyvfmv0hvhttgh06uu8uvggfguuuueyyr*ykjlmnuuup0r**",
"u0trglt0g0r>>nfjgfjr0wujy6,jwvwfxu<eeumu8r3vu,jny0r8,8yr<>80umZljjlvkhrg0mfyg07fyngtg75>rjrbunyjye00lcyju68vylbkge3u<w8<",
">uvZfruuu6rw6mnglmulZlw8ygevjlrras0u0xmljnggl-rCSlr,6rrw<eg,jnjgCgftjgftyffrtgnvggguft7huutjuvruenltSFujrary66y0808urufj",
"066fun0tjuuj<elnj<<ujyr,nvhblr<uquuu08dllmygmr8vZ0uew0<8<ugruZgfCrvljgftrrZ0y6gggrfrvfglb006hg0r6vv0lnwjylyvv68r8,>3<lyn",
"my7Flgr033ej<8w08%0w06:<MIlu80wquujr03eq8vjgy:w0w<39gv8yw5rlurrCf7tgCZtfu8g6C5fhC9y>fyvvl,8*vn90:rw=6gPrruerm60gw5rurxuZ",
"u6#07y8><jyyr=jZ<6<r0ugulPh>llw0wwlnmrjmr90>b,63el8<rng506gZvkggguufg756u6rrgCkbZgvguuy0g8w6tnlfhujunujgmCr6glu0jvnlyu88",
":*8v8<,0<u<r%<r<u>>j8<068yxl6g0uelZggjSZyw8<bS=<rrr<,86luubZuthFvflfl7>:lnvZ7khflknu8gyk::ug<*0Zlul0Fl7l>FC0<608y68r<ju0",
"<lu6>rg6-9jro<l<jwrl,<queZnFZp1mAervvyrw8urRjle<rn-e888jfulguluv6**5fDfry7fX6Zl7660r,:69>h<><g:>ugrwlu0gt<l<>70<r7yjgnu,"
};
